<?xml version="1.0" encoding="UTF-8" standalone="no"?>
<!DOCTYPE svg PUBLIC "-//W3C//DTD SVG 1.1//EN"
 "http://www.w3.org/Graphics/SVG/1.1/DTD/svg11.dtd">
<!-- Generated by graphviz version 2.38.0 (20140413.2041)
 -->
<!-- Title: G Pages: 1 -->
<svg width="1530pt" height="697pt"
 viewBox="0.00 0.00 1530.20 697.20" xmlns="http://www.w3.org/2000/svg" xmlns:xlink="http://www.w3.org/1999/xlink">
<g id="graph0" class="graph" transform="scale(1 1) rotate(0) translate(21.6 675.6)">
<title>G</title>
<polygon fill="#232323" stroke="none" points="-21.6,21.6 -21.6,-675.6 1508.6,-675.6 1508.6,21.6 -21.6,21.6"/>
<!-- index.js -->
<g id="node1" class="node"><title>index.js</title>
<path fill="none" stroke="#eaeaea" d="M57.3333,-328C57.3333,-328 7.66667,-328 7.66667,-328 3.83333,-328 0,-324.167 0,-320.333 0,-320.333 0,-312.667 0,-312.667 0,-308.833 3.83333,-305 7.66667,-305 7.66667,-305 57.3333,-305 57.3333,-305 61.1667,-305 65,-308.833 65,-312.667 65,-312.667 65,-320.333 65,-320.333 65,-324.167 61.1667,-328 57.3333,-328"/>
<text text-anchor="middle" x="32.5" y="-312.8" font-family="Arial" font-size="14.00" fill="#eaeaea">index.js</text>
</g>
<!-- lib/applyRuleset.js -->
<g id="node2" class="node"><title>lib/applyRuleset.js</title>
<path fill="none" stroke="#cfffac" d="M235.833,-349C235.833,-349 120.167,-349 120.167,-349 116.333,-349 112.5,-345.167 112.5,-341.333 112.5,-341.333 112.5,-333.667 112.5,-333.667 112.5,-329.833 116.333,-326 120.167,-326 120.167,-326 235.833,-326 235.833,-326 239.667,-326 243.5,-329.833 243.5,-333.667 243.5,-333.667 243.5,-341.333 243.5,-341.333 243.5,-345.167 239.667,-349 235.833,-349"/>
<text text-anchor="middle" x="178" y="-333.8" font-family="Arial" font-size="14.00" fill="#cfffac">lib/applyRuleset.js</text>
</g>
<!-- index.js&#45;&gt;lib/applyRuleset.js -->
<g id="edge1" class="edge"><title>index.js&#45;&gt;lib/applyRuleset.js</title>
<path fill="none" stroke="#f8f8f8" d="M65.3473,-321.161C76.4015,-322.778 89.3085,-324.667 102.344,-326.575"/>
<polygon fill="#f8f8f8" stroke="#f8f8f8" points="101.907,-330.048 112.308,-328.033 102.92,-323.122 101.907,-330.048"/>
</g>
<!-- lib/rules/default_set.js -->
<g id="node3" class="node"><title>lib/rules/default_set.js</title>
<path fill="none" stroke="#eaeaea" d="M247.333,-308C247.333,-308 108.667,-308 108.667,-308 104.833,-308 101,-304.167 101,-300.333 101,-300.333 101,-292.667 101,-292.667 101,-288.833 104.833,-285 108.667,-285 108.667,-285 247.333,-285 247.333,-285 251.167,-285 255,-288.833 255,-292.667 255,-292.667 255,-300.333 255,-300.333 255,-304.167 251.167,-308 247.333,-308"/>
<text text-anchor="middle" x="178" y="-292.8" font-family="Arial" font-size="14.00" fill="#eaeaea">lib/rules/default_set.js</text>
</g>
<!-- index.js&#45;&gt;lib/rules/default_set.js -->
<g id="edge2" class="edge"><title>index.js&#45;&gt;lib/rules/default_set.js</title>
<path fill="none" stroke="#f8f8f8" d="M65.3473,-312.061C73.1696,-310.971 81.9197,-309.752 90.9864,-308.488"/>
<polygon fill="#f8f8f8" stroke="#f8f8f8" points="91.499,-311.95 100.92,-307.103 90.5327,-305.017 91.499,-311.95"/>
</g>
<!-- lib/rules/code/code.js -->
<g id="node7" class="node"><title>lib/rules/code/code.js</title>
<path fill="none" stroke="#eaeaea" d="M467.333,-593C467.333,-593 330.667,-593 330.667,-593 326.833,-593 323,-589.167 323,-585.333 323,-585.333 323,-577.667 323,-577.667 323,-573.833 326.833,-570 330.667,-570 330.667,-570 467.333,-570 467.333,-570 471.167,-570 475,-573.833 475,-577.667 475,-577.667 475,-585.333 475,-585.333 475,-589.167 471.167,-593 467.333,-593"/>
<text text-anchor="middle" x="399" y="-577.8" font-family="Arial" font-size="14.00" fill="#eaeaea">lib/rules/code/code.js</text>
</g>
<!-- lib/rules/default_set.js&#45;&gt;lib/rules/code/code.js -->
<g id="edge11" class="edge"><title>lib/rules/default_set.js&#45;&gt;lib/rules/code/code.js</title>
<path fill="none" stroke="#f8f8f8" d="M244.436,-308.198C248.302,-310.511 251.881,-313.253 255,-316.5 306.402,-369.998 254.566,-414.872 291,-479.5 311.068,-515.098 347.566,-545.873 372.293,-564.053"/>
<polygon fill="#f8f8f8" stroke="#f8f8f8" points="370.337,-566.958 380.501,-569.946 374.419,-561.271 370.337,-566.958"/>
</g>
<!-- lib/rules/critic/critic.js -->
<g id="node10" class="node"><title>lib/rules/critic/critic.js</title>
<path fill="none" stroke="#eaeaea" d="M464.333,-470C464.333,-470 333.667,-470 333.667,-470 329.833,-470 326,-466.167 326,-462.333 326,-462.333 326,-454.667 326,-454.667 326,-450.833 329.833,-447 333.667,-447 333.667,-447 464.333,-447 464.333,-447 468.167,-447 472,-450.833 472,-454.667 472,-454.667 472,-462.333 472,-462.333 472,-466.167 468.167,-470 464.333,-470"/>
<text text-anchor="middle" x="399" y="-454.8" font-family="Arial" font-size="14.00" fill="#eaeaea">lib/rules/critic/critic.js</text>
</g>
<!-- lib/rules/default_set.js&#45;&gt;lib/rules/critic/critic.js -->
<g id="edge12" class="edge"><title>lib/rules/default_set.js&#45;&gt;lib/rules/critic/critic.js</title>
<path fill="none" stroke="#f8f8f8" d="M237.744,-308.132C243.788,-310.439 249.662,-313.199 255,-316.5 275.625,-329.253 274.164,-340.047 291,-357.5 319.905,-387.465 355.376,-420.214 377.335,-440.056"/>
<polygon fill="#f8f8f8" stroke="#f8f8f8" points="375.003,-442.665 384.777,-446.753 379.685,-437.462 375.003,-442.665"/>
</g>
<!-- lib/rules/extensions/math.js -->
<g id="node14" class="node"><title>lib/rules/extensions/math.js</title>
<path fill="none" stroke="#eaeaea" d="M484.333,-349C484.333,-349 313.667,-349 313.667,-349 309.833,-349 306,-345.167 306,-341.333 306,-341.333 306,-333.667 306,-333.667 306,-329.833 309.833,-326 313.667,-326 313.667,-326 484.333,-326 484.333,-326 488.167,-326 492,-329.833 492,-333.667 492,-333.667 492,-341.333 492,-341.333 492,-345.167 488.167,-349 484.333,-349"/>
<text text-anchor="middle" x="399" y="-333.8" font-family="Arial" font-size="14.00" fill="#eaeaea">lib/rules/extensions/math.js</text>
</g>
<!-- lib/rules/default_set.js&#45;&gt;lib/rules/extensions/math.js -->
<g id="edge13" class="edge"><title>lib/rules/default_set.js&#45;&gt;lib/rules/extensions/math.js</title>
<path fill="none" stroke="#f8f8f8" d="M240.587,-308.03C267.291,-313.029 298.731,-318.915 326.463,-324.107"/>
<polygon fill="#f8f8f8" stroke="#f8f8f8" points="326.023,-327.586 336.497,-325.986 327.312,-320.705 326.023,-327.586"/>
</g>
<!-- lib/rules/headings/headings.js -->
<g id="node15" class="node"><title>lib/rules/headings/headings.js</title>
<path fill="none" stroke="#eaeaea" d="M492.833,-308C492.833,-308 305.167,-308 305.167,-308 301.333,-308 297.5,-304.167 297.5,-300.333 297.5,-300.333 297.5,-292.667 297.5,-292.667 297.5,-288.833 301.333,-285 305.167,-285 305.167,-285 492.833,-285 492.833,-285 496.667,-285 500.5,-288.833 500.5,-292.667 500.5,-292.667 500.5,-300.333 500.5,-300.333 500.5,-304.167 496.667,-308 492.833,-308"/>
<text text-anchor="middle" x="399" y="-292.8" font-family="Arial" font-size="14.00" fill="#eaeaea">lib/rules/headings/headings.js</text>
</g>
<!-- lib/rules/default_set.js&#45;&gt;lib/rules/headings/headings.js -->
<g id="edge14" class="edge"><title>lib/rules/default_set.js&#45;&gt;lib/rules/headings/headings.js</title>
<path fill="none" stroke="#f8f8f8" d="M255.288,-296.5C265.578,-296.5 276.301,-296.5 287.042,-296.5"/>
<polygon fill="#f8f8f8" stroke="#f8f8f8" points="287.332,-300 297.332,-296.5 287.332,-293 287.332,-300"/>
</g>
<!-- lib/rules/lists/lists.js -->
<g id="node16" class="node"><title>lib/rules/lists/lists.js</title>
<path fill="none" stroke="#eaeaea" d="M459.833,-267C459.833,-267 338.167,-267 338.167,-267 334.333,-267 330.5,-263.167 330.5,-259.333 330.5,-259.333 330.5,-251.667 330.5,-251.667 330.5,-247.833 334.333,-244 338.167,-244 338.167,-244 459.833,-244 459.833,-244 463.667,-244 467.5,-247.833 467.5,-251.667 467.5,-251.667 467.5,-259.333 467.5,-259.333 467.5,-263.167 463.667,-267 459.833,-267"/>
<text text-anchor="middle" x="399" y="-251.8" font-family="Arial" font-size="14.00" fill="#eaeaea">lib/rules/lists/lists.js</text>
</g>
<!-- lib/rules/default_set.js&#45;&gt;lib/rules/lists/lists.js -->
<g id="edge15" class="edge"><title>lib/rules/default_set.js&#45;&gt;lib/rules/lists/lists.js</title>
<path fill="none" stroke="#f8f8f8" d="M240.325,-284.995C256.782,-281.909 274.569,-278.576 291,-275.5 302.465,-273.354 314.62,-271.08 326.468,-268.865"/>
<polygon fill="#f8f8f8" stroke="#f8f8f8" points="327.139,-272.3 336.325,-267.022 325.852,-265.419 327.139,-272.3"/>
</g>
<!-- lib/rules/phrasing/phrasing.js -->
<g id="node17" class="node"><title>lib/rules/phrasing/phrasing.js</title>
<path fill="none" stroke="#eaeaea" d="M488.833,-146C488.833,-146 309.167,-146 309.167,-146 305.333,-146 301.5,-142.167 301.5,-138.333 301.5,-138.333 301.5,-130.667 301.5,-130.667 301.5,-126.833 305.333,-123 309.167,-123 309.167,-123 488.833,-123 488.833,-123 492.667,-123 496.5,-126.833 496.5,-130.667 496.5,-130.667 496.5,-138.333 496.5,-138.333 496.5,-142.167 492.667,-146 488.833,-146"/>
<text text-anchor="middle" x="399" y="-130.8" font-family="Arial" font-size="14.00" fill="#eaeaea">lib/rules/phrasing/phrasing.js</text>
</g>
<!-- lib/rules/default_set.js&#45;&gt;lib/rules/phrasing/phrasing.js -->
<g id="edge16" class="edge"><title>lib/rules/default_set.js&#45;&gt;lib/rules/phrasing/phrasing.js</title>
<path fill="none" stroke="#f8f8f8" d="M194.75,-284.849C232.632,-256.827 329.03,-185.519 374.096,-152.182"/>
<polygon fill="#f8f8f8" stroke="#f8f8f8" points="376.435,-154.806 382.393,-146.045 372.272,-149.178 376.435,-154.806"/>
</g>
<!-- lib/rules/sectioning/sectioning.js -->
<g id="node18" class="node"><title>lib/rules/sectioning/sectioning.js</title>
<path fill="none" stroke="#eaeaea" d="M499.333,-64C499.333,-64 298.667,-64 298.667,-64 294.833,-64 291,-60.1667 291,-56.3333 291,-56.3333 291,-48.6667 291,-48.6667 291,-44.8333 294.833,-41 298.667,-41 298.667,-41 499.333,-41 499.333,-41 503.167,-41 507,-44.8333 507,-48.6667 507,-48.6667 507,-56.3333 507,-56.3333 507,-60.1667 503.167,-64 499.333,-64"/>
<text text-anchor="middle" x="399" y="-48.8" font-family="Arial" font-size="14.00" fill="#eaeaea">lib/rules/sectioning/sectioning.js</text>
</g>
<!-- lib/rules/default_set.js&#45;&gt;lib/rules/sectioning/sectioning.js -->
<g id="edge17" class="edge"><title>lib/rules/default_set.js&#45;&gt;lib/rules/sectioning/sectioning.js</title>
<path fill="none" stroke="#f8f8f8" d="M183.654,-284.852C196.578,-253.694 235.638,-167.168 291,-113.5 310.794,-94.3121 337.788,-78.9798 359.71,-68.4861"/>
<polygon fill="#f8f8f8" stroke="#f8f8f8" points="361.468,-71.529 369.069,-64.1485 358.525,-65.1779 361.468,-71.529"/>
</g>
<!-- lib/rules/code/block_code.js -->
<g id="node4" class="node"><title>lib/rules/code/block_code.js</title>
<path fill="none" stroke="#eaeaea" d="M780.833,-634C780.833,-634 602.167,-634 602.167,-634 598.333,-634 594.5,-630.167 594.5,-626.333 594.5,-626.333 594.5,-618.667 594.5,-618.667 594.5,-614.833 598.333,-611 602.167,-611 602.167,-611 780.833,-611 780.833,-611 784.667,-611 788.5,-614.833 788.5,-618.667 788.5,-618.667 788.5,-626.333 788.5,-626.333 788.5,-630.167 784.667,-634 780.833,-634"/>
<text text-anchor="middle" x="691.5" y="-618.8" font-family="Arial" font-size="14.00" fill="#eaeaea">lib/rules/code/block_code.js</text>
</g>
<!-- node_modules/html&#45;minifier/src/htmlminifier.js -->
<g id="node5" class="node"><title>node_modules/html&#45;minifier/src/htmlminifier.js</title>
<path fill="none" stroke="#cfffac" d="M1173.33,-654C1173.33,-654 883.667,-654 883.667,-654 879.833,-654 876,-650.167 876,-646.333 876,-646.333 876,-638.667 876,-638.667 876,-634.833 879.833,-631 883.667,-631 883.667,-631 1173.33,-631 1173.33,-631 1177.17,-631 1181,-634.833 1181,-638.667 1181,-638.667 1181,-646.333 1181,-646.333 1181,-650.167 1177.17,-654 1173.33,-654"/>
<text text-anchor="middle" x="1028.5" y="-638.8" font-family="Arial" font-size="14.00" fill="#cfffac">node_modules/html&#45;minifier/src/htmlminifier.js</text>
</g>
<!-- lib/rules/code/block_code.js&#45;&gt;node_modules/html&#45;minifier/src/htmlminifier.js -->
<g id="edge3" class="edge"><title>lib/rules/code/block_code.js&#45;&gt;node_modules/html&#45;minifier/src/htmlminifier.js</title>
<path fill="none" stroke="#f8f8f8" d="M788.946,-628.258C813.028,-629.696 839.514,-631.277 865.809,-632.847"/>
<polygon fill="#f8f8f8" stroke="#f8f8f8" points="865.681,-636.345 875.872,-633.448 866.099,-629.358 865.681,-636.345"/>
</g>
<!-- node_modules/prismjs/prism.js -->
<g id="node6" class="node"><title>node_modules/prismjs/prism.js</title>
<path fill="none" stroke="#cfffac" d="M1128.33,-613C1128.33,-613 928.667,-613 928.667,-613 924.833,-613 921,-609.167 921,-605.333 921,-605.333 921,-597.667 921,-597.667 921,-593.833 924.833,-590 928.667,-590 928.667,-590 1128.33,-590 1128.33,-590 1132.17,-590 1136,-593.833 1136,-597.667 1136,-597.667 1136,-605.333 1136,-605.333 1136,-609.167 1132.17,-613 1128.33,-613"/>
<text text-anchor="middle" x="1028.5" y="-597.8" font-family="Arial" font-size="14.00" fill="#cfffac">node_modules/prismjs/prism.js</text>
</g>
<!-- lib/rules/code/block_code.js&#45;&gt;node_modules/prismjs/prism.js -->
<g id="edge4" class="edge"><title>lib/rules/code/block_code.js&#45;&gt;node_modules/prismjs/prism.js</title>
<path fill="none" stroke="#f8f8f8" d="M788.946,-616.454C826.99,-614.069 871.037,-611.308 910.85,-608.812"/>
<polygon fill="#f8f8f8" stroke="#f8f8f8" points="911.113,-612.303 920.874,-608.184 910.675,-605.317 911.113,-612.303"/>
</g>
<!-- lib/rules/code/code.js&#45;&gt;lib/rules/code/block_code.js -->
<g id="edge5" class="edge"><title>lib/rules/code/code.js&#45;&gt;lib/rules/code/block_code.js</title>
<path fill="none" stroke="#f8f8f8" d="M475.306,-592.718C497.136,-595.927 521.011,-599.395 543,-602.5 559.577,-604.841 577.211,-607.278 594.304,-609.613"/>
<polygon fill="#f8f8f8" stroke="#f8f8f8" points="593.912,-613.091 604.293,-610.974 594.858,-606.156 593.912,-613.091"/>
</g>
<!-- lib/rules/code/inline_code.js -->
<g id="node8" class="node"><title>lib/rules/code/inline_code.js</title>
<path fill="none" stroke="#cfffac" d="M779.833,-593C779.833,-593 603.167,-593 603.167,-593 599.333,-593 595.5,-589.167 595.5,-585.333 595.5,-585.333 595.5,-577.667 595.5,-577.667 595.5,-573.833 599.333,-570 603.167,-570 603.167,-570 779.833,-570 779.833,-570 783.667,-570 787.5,-573.833 787.5,-577.667 787.5,-577.667 787.5,-585.333 787.5,-585.333 787.5,-589.167 783.667,-593 779.833,-593"/>
<text text-anchor="middle" x="691.5" y="-577.8" font-family="Arial" font-size="14.00" fill="#cfffac">lib/rules/code/inline_code.js</text>
</g>
<!-- lib/rules/code/code.js&#45;&gt;lib/rules/code/inline_code.js -->
<g id="edge6" class="edge"><title>lib/rules/code/code.js&#45;&gt;lib/rules/code/inline_code.js</title>
<path fill="none" stroke="#f8f8f8" d="M475.189,-581.5C508.688,-581.5 548.725,-581.5 585.137,-581.5"/>
<polygon fill="#f8f8f8" stroke="#f8f8f8" points="585.302,-585 595.302,-581.5 585.302,-578 585.302,-585"/>
</g>
<!-- lib/rules/critic/comment.js -->
<g id="node9" class="node"><title>lib/rules/critic/comment.js</title>
<path fill="none" stroke="#cfffac" d="M771.833,-552C771.833,-552 611.167,-552 611.167,-552 607.333,-552 603.5,-548.167 603.5,-544.333 603.5,-544.333 603.5,-536.667 603.5,-536.667 603.5,-532.833 607.333,-529 611.167,-529 611.167,-529 771.833,-529 771.833,-529 775.667,-529 779.5,-532.833 779.5,-536.667 779.5,-536.667 779.5,-544.333 779.5,-544.333 779.5,-548.167 775.667,-552 771.833,-552"/>
<text text-anchor="middle" x="691.5" y="-536.8" font-family="Arial" font-size="14.00" fill="#cfffac">lib/rules/critic/comment.js</text>
</g>
<!-- lib/rules/critic/critic.js&#45;&gt;lib/rules/critic/comment.js -->
<g id="edge7" class="edge"><title>lib/rules/critic/critic.js&#45;&gt;lib/rules/critic/comment.js</title>
<path fill="none" stroke="#f8f8f8" d="M421.604,-470.107C449.027,-484.308 498.168,-507.999 543,-520.5 559.022,-524.968 576.313,-528.453 593.22,-531.168"/>
<polygon fill="#f8f8f8" stroke="#f8f8f8" points="592.704,-534.63 603.118,-532.679 593.761,-527.71 592.704,-534.63"/>
</g>
<!-- lib/rules/critic/del.js -->
<g id="node11" class="node"><title>lib/rules/critic/del.js</title>
<path fill="none" stroke="#cfffac" d="M751.833,-511C751.833,-511 631.167,-511 631.167,-511 627.333,-511 623.5,-507.167 623.5,-503.333 623.5,-503.333 623.5,-495.667 623.5,-495.667 623.5,-491.833 627.333,-488 631.167,-488 631.167,-488 751.833,-488 751.833,-488 755.667,-488 759.5,-491.833 759.5,-495.667 759.5,-495.667 759.5,-503.333 759.5,-503.333 759.5,-507.167 755.667,-511 751.833,-511"/>
<text text-anchor="middle" x="691.5" y="-495.8" font-family="Arial" font-size="14.00" fill="#cfffac">lib/rules/critic/del.js</text>
</g>
<!-- lib/rules/critic/critic.js&#45;&gt;lib/rules/critic/del.js -->
<g id="edge8" class="edge"><title>lib/rules/critic/critic.js&#45;&gt;lib/rules/critic/del.js</title>
<path fill="none" stroke="#f8f8f8" d="M472.358,-469.285C494.973,-472.613 520.017,-476.254 543,-479.5 565.847,-482.726 590.7,-486.135 613.38,-489.207"/>
<polygon fill="#f8f8f8" stroke="#f8f8f8" points="612.913,-492.675 623.292,-490.546 613.851,-485.738 612.913,-492.675"/>
</g>
<!-- lib/rules/critic/ins.js -->
<g id="node12" class="node"><title>lib/rules/critic/ins.js</title>
<path fill="none" stroke="#cfffac" d="M750.833,-470C750.833,-470 632.167,-470 632.167,-470 628.333,-470 624.5,-466.167 624.5,-462.333 624.5,-462.333 624.5,-454.667 624.5,-454.667 624.5,-450.833 628.333,-447 632.167,-447 632.167,-447 750.833,-447 750.833,-447 754.667,-447 758.5,-450.833 758.5,-454.667 758.5,-454.667 758.5,-462.333 758.5,-462.333 758.5,-466.167 754.667,-470 750.833,-470"/>
<text text-anchor="middle" x="691.5" y="-454.8" font-family="Arial" font-size="14.00" fill="#cfffac">lib/rules/critic/ins.js</text>
</g>
<!-- lib/rules/critic/critic.js&#45;&gt;lib/rules/critic/ins.js -->
<g id="edge9" class="edge"><title>lib/rules/critic/critic.js&#45;&gt;lib/rules/critic/ins.js</title>
<path fill="none" stroke="#f8f8f8" d="M472.182,-458.5C515.365,-458.5 570.198,-458.5 614.108,-458.5"/>
<polygon fill="#f8f8f8" stroke="#f8f8f8" points="614.16,-462 624.16,-458.5 614.16,-455 614.16,-462"/>
</g>
<!-- lib/rules/critic/mark.js -->
<g id="node13" class="node"><title>lib/rules/critic/mark.js</title>
<path fill="none" stroke="#cfffac" d="M757.333,-429C757.333,-429 625.667,-429 625.667,-429 621.833,-429 618,-425.167 618,-421.333 618,-421.333 618,-413.667 618,-413.667 618,-409.833 621.833,-406 625.667,-406 625.667,-406 757.333,-406 757.333,-406 761.167,-406 765,-409.833 765,-413.667 765,-413.667 765,-421.333 765,-421.333 765,-425.167 761.167,-429 757.333,-429"/>
<text text-anchor="middle" x="691.5" y="-413.8" font-family="Arial" font-size="14.00" fill="#cfffac">lib/rules/critic/mark.js</text>
</g>
<!-- lib/rules/critic/critic.js&#45;&gt;lib/rules/critic/mark.js -->
<g id="edge10" class="edge"><title>lib/rules/critic/critic.js&#45;&gt;lib/rules/critic/mark.js</title>
<path fill="none" stroke="#f8f8f8" d="M472.182,-448.312C513.329,-442.505 565.055,-435.205 607.829,-429.168"/>
<polygon fill="#f8f8f8" stroke="#f8f8f8" points="608.521,-432.605 617.933,-427.742 607.542,-425.674 608.521,-432.605"/>
</g>
<!-- lib/rules/extensions/evaluate.js -->
<g id="node19" class="node"><title>lib/rules/extensions/evaluate.js</title>
<path fill="none" stroke="#eaeaea" d="M1124.83,-389C1124.83,-389 932.167,-389 932.167,-389 928.333,-389 924.5,-385.167 924.5,-381.333 924.5,-381.333 924.5,-373.667 924.5,-373.667 924.5,-369.833 928.333,-366 932.167,-366 932.167,-366 1124.83,-366 1124.83,-366 1128.67,-366 1132.5,-369.833 1132.5,-373.667 1132.5,-373.667 1132.5,-381.333 1132.5,-381.333 1132.5,-385.167 1128.67,-389 1124.83,-389"/>
<text text-anchor="middle" x="1028.5" y="-373.8" font-family="Arial" font-size="14.00" fill="#eaeaea">lib/rules/extensions/evaluate.js</text>
</g>
<!-- lib/rules/extensions/math.js&#45;&gt;lib/rules/extensions/evaluate.js -->
<g id="edge19" class="edge"><title>lib/rules/extensions/math.js&#45;&gt;lib/rules/extensions/evaluate.js</title>
<path fill="none" stroke="#f8f8f8" d="M472.222,-349C494.831,-352.224 519.906,-355.413 543,-357.5 669.732,-368.951 815.713,-373.852 914.032,-375.946"/>
<polygon fill="#f8f8f8" stroke="#f8f8f8" points="914.218,-379.45 924.288,-376.158 914.362,-372.452 914.218,-379.45"/>
</g>
<!-- lib/rules/extensions/toTex.js -->
<g id="node21" class="node"><title>lib/rules/extensions/toTex.js</title>
<path fill="none" stroke="#eaeaea" d="M778.833,-349C778.833,-349 604.167,-349 604.167,-349 600.333,-349 596.5,-345.167 596.5,-341.333 596.5,-341.333 596.5,-333.667 596.5,-333.667 596.5,-329.833 600.333,-326 604.167,-326 604.167,-326 778.833,-326 778.833,-326 782.667,-326 786.5,-329.833 786.5,-333.667 786.5,-333.667 786.5,-341.333 786.5,-341.333 786.5,-345.167 782.667,-349 778.833,-349"/>
<text text-anchor="middle" x="691.5" y="-333.8" font-family="Arial" font-size="14.00" fill="#eaeaea">lib/rules/extensions/toTex.js</text>
</g>
<!-- lib/rules/extensions/math.js&#45;&gt;lib/rules/extensions/toTex.js -->
<g id="edge20" class="edge"><title>lib/rules/extensions/math.js&#45;&gt;lib/rules/extensions/toTex.js</title>
<path fill="none" stroke="#f8f8f8" d="M492.315,-337.5C522.168,-337.5 555.477,-337.5 586.139,-337.5"/>
<polygon fill="#f8f8f8" stroke="#f8f8f8" points="586.428,-341 596.427,-337.5 586.427,-334 586.428,-341"/>
</g>
<!-- node_modules/change&#45;case/change&#45;case.js -->
<g id="node22" class="node"><title>node_modules/change&#45;case/change&#45;case.js</title>
<path fill="none" stroke="#cfffac" d="M832.333,-308C832.333,-308 550.667,-308 550.667,-308 546.833,-308 543,-304.167 543,-300.333 543,-300.333 543,-292.667 543,-292.667 543,-288.833 546.833,-285 550.667,-285 550.667,-285 832.333,-285 832.333,-285 836.167,-285 840,-288.833 840,-292.667 840,-292.667 840,-300.333 840,-300.333 840,-304.167 836.167,-308 832.333,-308"/>
<text text-anchor="middle" x="691.5" y="-292.8" font-family="Arial" font-size="14.00" fill="#cfffac">node_modules/change&#45;case/change&#45;case.js</text>
</g>
<!-- lib/rules/headings/headings.js&#45;&gt;node_modules/change&#45;case/change&#45;case.js -->
<g id="edge23" class="edge"><title>lib/rules/headings/headings.js&#45;&gt;node_modules/change&#45;case/change&#45;case.js</title>
<path fill="none" stroke="#f8f8f8" d="M500.788,-296.5C511.095,-296.5 521.733,-296.5 532.465,-296.5"/>
<polygon fill="#f8f8f8" stroke="#f8f8f8" points="532.775,-300 542.775,-296.5 532.775,-293 532.775,-300"/>
</g>
<!-- lib/rules/lists/li.js -->
<g id="node23" class="node"><title>lib/rules/lists/li.js</title>
<path fill="none" stroke="#cfffac" d="M1079.83,-248C1079.83,-248 977.167,-248 977.167,-248 973.333,-248 969.5,-244.167 969.5,-240.333 969.5,-240.333 969.5,-232.667 969.5,-232.667 969.5,-228.833 973.333,-225 977.167,-225 977.167,-225 1079.83,-225 1079.83,-225 1083.67,-225 1087.5,-228.833 1087.5,-232.667 1087.5,-232.667 1087.5,-240.333 1087.5,-240.333 1087.5,-244.167 1083.67,-248 1079.83,-248"/>
<text text-anchor="middle" x="1028.5" y="-232.8" font-family="Arial" font-size="14.00" fill="#cfffac">lib/rules/lists/li.js</text>
</g>
<!-- lib/rules/lists/lists.js&#45;&gt;lib/rules/lists/li.js -->
<g id="edge24" class="edge"><title>lib/rules/lists/lists.js&#45;&gt;lib/rules/lists/li.js</title>
<path fill="none" stroke="#f8f8f8" d="M467.75,-253.449C588.152,-249.803 838.082,-242.235 959.012,-238.574"/>
<polygon fill="#f8f8f8" stroke="#f8f8f8" points="959.361,-242.065 969.25,-238.264 959.149,-235.068 959.361,-242.065"/>
</g>
<!-- lib/rules/lists/ul.js -->
<g id="node24" class="node"><title>lib/rules/lists/ul.js</title>
<path fill="none" stroke="#eaeaea" d="M744.833,-228C744.833,-228 638.167,-228 638.167,-228 634.333,-228 630.5,-224.167 630.5,-220.333 630.5,-220.333 630.5,-212.667 630.5,-212.667 630.5,-208.833 634.333,-205 638.167,-205 638.167,-205 744.833,-205 744.833,-205 748.667,-205 752.5,-208.833 752.5,-212.667 752.5,-212.667 752.5,-220.333 752.5,-220.333 752.5,-224.167 748.667,-228 744.833,-228"/>
<text text-anchor="middle" x="691.5" y="-212.8" font-family="Arial" font-size="14.00" fill="#eaeaea">lib/rules/lists/ul.js</text>
</g>
<!-- lib/rules/lists/lists.js&#45;&gt;lib/rules/lists/ul.js -->
<g id="edge25" class="edge"><title>lib/rules/lists/lists.js&#45;&gt;lib/rules/lists/ul.js</title>
<path fill="none" stroke="#f8f8f8" d="M467.743,-246.405C513.508,-240.261 573.792,-232.168 620.105,-225.951"/>
<polygon fill="#f8f8f8" stroke="#f8f8f8" points="620.617,-229.413 630.062,-224.614 619.685,-222.476 620.617,-229.413"/>
</g>
<!-- lib/rules/phrasing/em.js -->
<g id="node25" class="node"><title>lib/rules/phrasing/em.js</title>
<path fill="none" stroke="#cfffac" d="M764.333,-187C764.333,-187 618.667,-187 618.667,-187 614.833,-187 611,-183.167 611,-179.333 611,-179.333 611,-171.667 611,-171.667 611,-167.833 614.833,-164 618.667,-164 618.667,-164 764.333,-164 764.333,-164 768.167,-164 772,-167.833 772,-171.667 772,-171.667 772,-179.333 772,-179.333 772,-183.167 768.167,-187 764.333,-187"/>
<text text-anchor="middle" x="691.5" y="-171.8" font-family="Arial" font-size="14.00" fill="#cfffac">lib/rules/phrasing/em.js</text>
</g>
<!-- lib/rules/phrasing/phrasing.js&#45;&gt;lib/rules/phrasing/em.js -->
<g id="edge27" class="edge"><title>lib/rules/phrasing/phrasing.js&#45;&gt;lib/rules/phrasing/em.js</title>
<path fill="none" stroke="#f8f8f8" d="M481.694,-146.03C518.82,-151.27 562.847,-157.484 600.88,-162.851"/>
<polygon fill="#f8f8f8" stroke="#f8f8f8" points="600.532,-166.337 610.923,-164.269 601.51,-159.406 600.532,-166.337"/>
</g>
<!-- lib/rules/phrasing/strong.js -->
<g id="node26" class="node"><title>lib/rules/phrasing/strong.js</title>
<path fill="none" stroke="#cfffac" d="M774.333,-146C774.333,-146 608.667,-146 608.667,-146 604.833,-146 601,-142.167 601,-138.333 601,-138.333 601,-130.667 601,-130.667 601,-126.833 604.833,-123 608.667,-123 608.667,-123 774.333,-123 774.333,-123 778.167,-123 782,-126.833 782,-130.667 782,-130.667 782,-138.333 782,-138.333 782,-142.167 778.167,-146 774.333,-146"/>
<text text-anchor="middle" x="691.5" y="-130.8" font-family="Arial" font-size="14.00" fill="#cfffac">lib/rules/phrasing/strong.js</text>
</g>
<!-- lib/rules/phrasing/phrasing.js&#45;&gt;lib/rules/phrasing/strong.js -->
<g id="edge28" class="edge"><title>lib/rules/phrasing/phrasing.js&#45;&gt;lib/rules/phrasing/strong.js</title>
<path fill="none" stroke="#f8f8f8" d="M496.732,-134.5C526.835,-134.5 560.079,-134.5 590.406,-134.5"/>
<polygon fill="#f8f8f8" stroke="#f8f8f8" points="590.57,-138 600.57,-134.5 590.57,-131 590.57,-138"/>
</g>
<!-- lib/rules/phrasing/sub.js -->
<g id="node27" class="node"><title>lib/rules/phrasing/sub.js</title>
<path fill="none" stroke="#cfffac" d="M765.833,-105C765.833,-105 617.167,-105 617.167,-105 613.333,-105 609.5,-101.167 609.5,-97.3333 609.5,-97.3333 609.5,-89.6667 609.5,-89.6667 609.5,-85.8333 613.333,-82 617.167,-82 617.167,-82 765.833,-82 765.833,-82 769.667,-82 773.5,-85.8333 773.5,-89.6667 773.5,-89.6667 773.5,-97.3333 773.5,-97.3333 773.5,-101.167 769.667,-105 765.833,-105"/>
<text text-anchor="middle" x="691.5" y="-89.8" font-family="Arial" font-size="14.00" fill="#cfffac">lib/rules/phrasing/sub.js</text>
</g>
<!-- lib/rules/phrasing/phrasing.js&#45;&gt;lib/rules/phrasing/sub.js -->
<g id="edge29" class="edge"><title>lib/rules/phrasing/phrasing.js&#45;&gt;lib/rules/phrasing/sub.js</title>
<path fill="none" stroke="#f8f8f8" d="M477.532,-122.955C498.752,-119.839 521.757,-116.5 543,-113.5 561.22,-110.927 580.715,-108.238 599.366,-105.697"/>
<polygon fill="#f8f8f8" stroke="#f8f8f8" points="599.891,-109.158 609.329,-104.343 598.948,-102.222 599.891,-109.158"/>
</g>
<!-- lib/rules/phrasing/sup.js -->
<g id="node28" class="node"><title>lib/rules/phrasing/sup.js</title>
<path fill="none" stroke="#cfffac" d="M765.833,-64C765.833,-64 617.167,-64 617.167,-64 613.333,-64 609.5,-60.1667 609.5,-56.3333 609.5,-56.3333 609.5,-48.6667 609.5,-48.6667 609.5,-44.8333 613.333,-41 617.167,-41 617.167,-41 765.833,-41 765.833,-41 769.667,-41 773.5,-44.8333 773.5,-48.6667 773.5,-48.6667 773.5,-56.3333 773.5,-56.3333 773.5,-60.1667 769.667,-64 765.833,-64"/>
<text text-anchor="middle" x="691.5" y="-48.8" font-family="Arial" font-size="14.00" fill="#cfffac">lib/rules/phrasing/sup.js</text>
</g>
<!-- lib/rules/phrasing/phrasing.js&#45;&gt;lib/rules/phrasing/sup.js -->
<g id="edge30" class="edge"><title>lib/rules/phrasing/phrasing.js&#45;&gt;lib/rules/phrasing/sup.js</title>
<path fill="none" stroke="#f8f8f8" d="M421.604,-122.893C449.027,-108.692 498.168,-85.0012 543,-72.5 560.935,-67.4989 580.459,-63.7286 599.256,-60.8925"/>
<polygon fill="#f8f8f8" stroke="#f8f8f8" points="599.904,-64.3354 609.307,-59.4522 598.911,-57.4062 599.904,-64.3354"/>
</g>
<!-- lib/rules/sectioning/blockquote.js -->
<g id="node29" class="node"><title>lib/rules/sectioning/blockquote.js</title>
<path fill="none" stroke="#cfffac" d="M794.333,-23C794.333,-23 588.667,-23 588.667,-23 584.833,-23 581,-19.1667 581,-15.3333 581,-15.3333 581,-7.66667 581,-7.66667 581,-3.83333 584.833,-0 588.667,-0 588.667,-0 794.333,-0 794.333,-0 798.167,-0 802,-3.83333 802,-7.66667 802,-7.66667 802,-15.3333 802,-15.3333 802,-19.1667 798.167,-23 794.333,-23"/>
<text text-anchor="middle" x="691.5" y="-7.8" font-family="Arial" font-size="14.00" fill="#cfffac">lib/rules/sectioning/blockquote.js</text>
</g>
<!-- lib/rules/sectioning/sectioning.js&#45;&gt;lib/rules/sectioning/blockquote.js -->
<g id="edge31" class="edge"><title>lib/rules/sectioning/sectioning.js&#45;&gt;lib/rules/sectioning/blockquote.js</title>
<path fill="none" stroke="#f8f8f8" d="M477.532,-40.9548C498.752,-37.8385 521.757,-34.5 543,-31.5 559.577,-29.159 577.211,-26.722 594.304,-24.3875"/>
<polygon fill="#f8f8f8" stroke="#f8f8f8" points="594.858,-27.8444 604.293,-23.0263 593.912,-20.9085 594.858,-27.8444"/>
</g>
<!-- node_modules/mathjs/main/es5/index.js -->
<g id="node20" class="node"><title>node_modules/mathjs/main/es5/index.js</title>
<path fill="none" stroke="#cfffac" d="M1479.33,-369C1479.33,-369 1224.67,-369 1224.67,-369 1220.83,-369 1217,-365.167 1217,-361.333 1217,-361.333 1217,-353.667 1217,-353.667 1217,-349.833 1220.83,-346 1224.67,-346 1224.67,-346 1479.33,-346 1479.33,-346 1483.17,-346 1487,-349.833 1487,-353.667 1487,-353.667 1487,-361.333 1487,-361.333 1487,-365.167 1483.17,-369 1479.33,-369"/>
<text text-anchor="middle" x="1352" y="-353.8" font-family="Arial" font-size="14.00" fill="#cfffac">node_modules/mathjs/main/es5/index.js</text>
</g>
<!-- lib/rules/extensions/evaluate.js&#45;&gt;node_modules/mathjs/main/es5/index.js -->
<g id="edge18" class="edge"><title>lib/rules/extensions/evaluate.js&#45;&gt;node_modules/mathjs/main/es5/index.js</title>
<path fill="none" stroke="#f8f8f8" d="M1132.55,-371.089C1156.12,-369.623 1181.6,-368.038 1206.54,-366.486"/>
<polygon fill="#f8f8f8" stroke="#f8f8f8" points="1207.05,-369.961 1216.82,-365.847 1206.62,-362.975 1207.05,-369.961"/>
</g>
<!-- lib/rules/extensions/toTex.js&#45;&gt;lib/rules/extensions/evaluate.js -->
<g id="edge21" class="edge"><title>lib/rules/extensions/toTex.js&#45;&gt;lib/rules/extensions/evaluate.js</title>
<path fill="none" stroke="#f8f8f8" d="M786.708,-348.749C828.54,-353.744 877.97,-359.646 921.126,-364.799"/>
<polygon fill="#f8f8f8" stroke="#f8f8f8" points="920.746,-368.278 931.09,-365.988 921.576,-361.327 920.746,-368.278"/>
</g>
<!-- lib/rules/extensions/toTex.js&#45;&gt;node_modules/mathjs/main/es5/index.js -->
<g id="edge22" class="edge"><title>lib/rules/extensions/toTex.js&#45;&gt;node_modules/mathjs/main/es5/index.js</title>
<path fill="none" stroke="#f8f8f8" d="M786.847,-340.366C896.608,-343.699 1079.04,-349.24 1206.65,-353.116"/>
<polygon fill="#f8f8f8" stroke="#f8f8f8" points="1206.79,-356.622 1216.89,-353.427 1207,-349.625 1206.79,-356.622"/>
</g>
<!-- lib/rules/lists/ul.js&#45;&gt;lib/rules/lists/li.js -->
<g id="edge26" class="edge"><title>lib/rules/lists/ul.js&#45;&gt;lib/rules/lists/li.js</title>
<path fill="none" stroke="#f8f8f8" d="M752.778,-220.099C810.83,-223.565 898.526,-228.8 959.149,-232.419"/>
<polygon fill="#f8f8f8" stroke="#f8f8f8" points="959.197,-235.928 969.388,-233.031 959.614,-228.941 959.197,-235.928"/>
</g>
</g>
</svg>
