<?xml version="1.0" standalone="no"?>
<!DOCTYPE svg PUBLIC "-//W3C//DTD SVG 1.1//EN" "http://www.w3.org/Graphics/SVG/1.1/DTD/svg11.dtd" >
<svg>
<metadata>
Created by FontForge 20110222 at Mon Mar  7 11:16:58 2011
 By www-data
COM4t(Communicate by Four Typeface) (C)Hideki Katayama All Rights Reserved. [FFF]
</metadata>
<defs>
<font id="SpirequalLight" horiz-adv-x="475" >
  <font-face 
    font-family="spirequal Light"
    font-weight="400"
    font-stretch="normal"
    units-per-em="2380"
    panose-1="0 0 4 0 0 0 0 0 0 0"
    ascent="2000"
    descent="-380"
    x-height="916"
    cap-height="1450"
    bbox="-158 -380 1439 2000"
    underline-thickness="20"
    underline-position="-123"
    unicode-range="U+0020-201E"
  />
    <missing-glyph />
    <glyph glyph-name="space" unicode=" " 
 />
    <glyph glyph-name="exclam" unicode="!" horiz-adv-x="349" 
d="M142 1452l-40 -1084h-31l-37 1084h108zM182 92l-91 -91l-91 91l91 91z" />
    <glyph glyph-name="quotedbl" unicode="&#x22;" horiz-adv-x="602" 
d="M385 1374l-153 -456v456l76 76zM153 1374l-153 -456v456l76 76z" />
    <glyph glyph-name="numbersign" unicode="#" horiz-adv-x="834" 
d="M699 595h-228l-40 -371h-43l41 371h-228l-41 -371h-42l40 371h-158v78h167l39 355h-206v79h214l38 343h43l-38 -343h228l37 343h43l-37 -343h171v-79h-180l-39 -355h219v-78zM476 1028h-227l-39 -355h227z" />
    <glyph glyph-name="dollar" unicode="$" horiz-adv-x="879" 
d="M690 494q5 -35 5 -68q0 -140 -83 -231.5t-228 -112.5v-180h-43v175q-24 -2 -43 -2q-69 0 -151 30q-92 32 -147 84v267l83 -259q103 -85 223 -85q13 0 35 2v602q-159 101 -209 146q-101 92 -112 197q-2 20 -2 39q0 260 323 281v164h43v-162h8q124 0 264 -71v-267l-73 241
q-102 63 -199 63v-529q142 -90 198 -142q95 -88 108 -182zM341 846v499q-102 -10 -163 -65q-65 -58 -65 -150q0 -23 4 -46q17 -104 224 -238zM384 688v-567q107 23 163 108q46 72 46 166q0 155 -209 293z" />
    <glyph glyph-name="percent" unicode="%" horiz-adv-x="1510" 
d="M1308 388q0 -399 -271 -399q-272 0 -272 399q0 400 272 400q271 0 271 -400zM1051 1450l-753 -1450h-51l753 1450h51zM543 1062q0 -399 -271 -399q-272 0 -272 399t272 399q271 0 271 -399zM1211 388q0 368 -174 368t-174 -368q0 -367 174 -367t174 367zM446 1062
q0 368 -174 368q-175 0 -175 -368t175 -368q174 0 174 368z" />
    <glyph glyph-name="ampersand" unicode="&#x26;" horiz-adv-x="1274" 
d="M1107 226l-77 -246q-143 129 -247 231q-140 -222 -365 -222q-418 0 -418 408q0 249 281 443q-90 181 -90 335q0 128 60 203q66 83 193 83q241 0 241 -206q0 -37 -9 -78q-18 -88 -85 -151q-34 -33 -179 -132q-17 -12 -34 -23q124 -232 424 -534q65 167 69 406l-2 -2
l-103 36h244l-96 -34q-5 -258 -81 -436q94 -94 207 -196zM577 1180q6 36 6 68q0 183 -137 183q-161 0 -161 -229q0 -146 80 -306q101 65 142 116q53 64 70 168zM755 238q-325 321 -458 570q-186 -156 -186 -389q0 -21 1 -42q9 -168 95 -264q81 -91 206 -91q215 0 342 216z
" />
    <glyph glyph-name="quotesingle" unicode="'" horiz-adv-x="355" 
d="M152 1374l-152 -456v456l76 76z" />
    <glyph glyph-name="parenleft" unicode="(" horiz-adv-x="504" 
d="M450 -377q-188 11 -320 312q-130 297 -130 699q0 401 131 699.5t319 310.5v-33q-144 -13 -236 -264q-97 -267 -97 -713q0 -447 97 -714q92 -251 236 -264v-33z" />
    <glyph glyph-name="parenright" unicode=")" horiz-adv-x="652" 
d="M450 634q0 -402 -130 -699q-132 -301 -320 -312v33q144 13 235 264q98 267 98 714q0 446 -98 713q-91 251 -235 264v33q188 -12 319 -310.5t131 -699.5z" />
    <glyph glyph-name="asterisk" unicode="*" horiz-adv-x="770" 
d="M652 1262l-23 -87l-303 -101l240 211zM390 1387l-64 -313l-63 313l63 63zM652 886l-87 -24l-239 212l303 -102zM326 1074l-303 102l-23 86l87 23zM389 761l-63 -64l-63 64l63 313zM326 1074l-239 -212l-87 24l23 86z" />
    <glyph glyph-name="plus" unicode="+" horiz-adv-x="713" 
d="M579 438h-268v-268h-43v268h-268v43h268v268h43v-268h268v-43z" />
    <glyph glyph-name="comma" unicode="," horiz-adv-x="388" 
d="M182 92l-158 -286l45 210l-69 76l91 91z" />
    <glyph glyph-name="hyphen" unicode="-" horiz-adv-x="696" 
d="M579 437h-579v42h579v-42z" />
    <glyph glyph-name="hyphen" unicode="&#x2010;" horiz-adv-x="696" 
d="M579 437h-579v42h579v-42z" />
    <glyph glyph-name="period" unicode="." horiz-adv-x="349" 
d="M193 92l-91 -91l-91 91l91 91z" />
    <glyph glyph-name="slash" unicode="/" horiz-adv-x="904" 
d="M787 1450l-753 -1450h-51l753 1450h51z" />
    <glyph glyph-name="zero" unicode="0" horiz-adv-x="946" 
d="M756 725q0 -357 -107 -552q-101 -184 -271 -184t-271 184q-107 195 -107 552q0 358 107 553q101 183 271 183t271 -183q107 -195 107 -553zM644 725q0 328 -73 517q-71 186 -192 186q-122 0 -193 -186q-73 -189 -73 -517q0 -327 72 -514.5t194 -187.5q121 0 193 187.5
t72 514.5z" />
    <glyph glyph-name="one" unicode="1" horiz-adv-x="533" 
d="M358 0h-342l118 36v1342l-123 -43l-11 34l241 81v-1414z" />
    <glyph glyph-name="two" unicode="2" horiz-adv-x="821" 
d="M596 0h-596q12 210 121 415q10 19 207 327q119 185 142 327q9 53 9 102q0 257 -185 257q-89 0 -159 -48l-76 -252v267q106 66 234 66q143 0 225 -85q78 -81 78 -214q0 -46 -11 -96q-34 -164 -156 -326l-218 -276q-121 -173 -156 -370h498l43 145v-239z" />
    <glyph glyph-name="three" unicode="3" horiz-adv-x="743" 
d="M580 415q0 -169 -90 -289q-99 -131 -260 -131q-133 0 -230 58v267l76 -250q64 -41 140 -41q121 0 189 114q61 103 61 263q0 379 -307 360v35q115 2 190 86q73 80 83 209q2 35 2 66q0 266 -189 266q-85 0 -148 -43l-76 -253v267q99 62 223 62q147 0 229 -92
q77 -86 77 -224q0 -37 -6 -75q-13 -85 -72 -159q-62 -77 -153 -113q114 -20 183 -111q78 -102 78 -272z" />
    <glyph glyph-name="four" unicode="4" horiz-adv-x="890" 
d="M766 383h-207v-347l118 -36h-343l118 36v347h-452v35l452 1032h107v-1032h144l63 173v-208zM452 418v950l-412 -950h412z" />
    <glyph glyph-name="five" unicode="5" horiz-adv-x="743" 
d="M580 458q0 -175 -90 -311q-101 -152 -260 -152q-133 0 -230 58v267l75 -247q72 -44 156 -44q109 0 176 135q59 120 59 285q0 160 -72 262q-76 108 -203 108q-76 0 -162 -41l44 672h416l26 87v-174h-412l-32 -524q89 37 171 37q151 0 244.5 -116t93.5 -302z" />
    <glyph glyph-name="six" unicode="6" horiz-adv-x="812" 
d="M689 452q0 -177 -83 -310q-95 -153 -253 -153q-353 0 -353 680q0 355 98 565q107 227 305 227q118 0 223 -75v-273l-89 281q-50 34 -133 34v0q-135 0 -212 -202q-69 -181 -78 -479q90 159 252 159q152 0 239 -127q84 -123 84 -327zM576 443q0 408 -236 410
q-47 0 -106 -39q-77 -49 -121 -138v-7q0 -316 45 -463q56 -183 196 -183h1q108 0 169 135q52 117 52 285z" />
    <glyph glyph-name="seven" unicode="7" horiz-adv-x="704" 
d="M588 1450q-224 -422 -290 -798q-38 -218 -38 -652h-123q0 661 366 1363h-500l-43 -142v229h628z" />
    <glyph glyph-name="eight" unicode="8" horiz-adv-x="839" 
d="M684 401q0 -189 -99 -300q-94 -106 -243 -106t-243 106q-99 111 -99 300q0 153 66 257q63 99 171 134q-198 62 -198 319q0 159 82 254.5t221 95.5t221 -95.5t82 -254.5q0 -257 -198 -319q108 -35 170 -134q67 -104 67 -257zM542 1111q0 319 -200 319t-200 -319
q0 -303 200 -303t200 303zM580 401q0 189 -73 288q-63 87 -165 87t-165 -87q-73 -99 -73 -288t73 -288q63 -86 165 -86t165 86q73 99 73 288z" />
    <glyph glyph-name="nine" unicode="9" horiz-adv-x="867" 
d="M673 782q0 -360 -91 -566q-101 -227 -298 -227q-132 0 -205 46v287l96 -279q46 -20 108 -20h1q131 0 203 209q63 182 71 485q-76 -145 -235 -145q-150 0 -240 126q-83 116 -83 291q0 181 78 315q92 157 249 157q346 0 346 -679zM560 808v2q0 315 -41 448
q-52 169 -193 169h-1q-107 0 -164 -139q-48 -117 -48 -290q0 -175 60 -273.5t168 -98.5q157 0 219 182z" />
    <glyph glyph-name="colon" unicode=":" horiz-adv-x="285" 
d="M182 825l-91 -91l-91 91l91 91zM182 256l-91 -90l-91 90l91 91z" />
    <glyph glyph-name="semicolon" unicode=";" horiz-adv-x="368" 
d="M182 825l-91 -91l-91 91l91 91zM182 256l-158 -285l45 209l-69 76l91 91z" />
    <glyph glyph-name="less" unicode="&#x3c;" horiz-adv-x="387" 
d="M353 -102h-51l-302 568l302 569h51l-302 -569z" />
    <glyph glyph-name="equal" unicode="=" horiz-adv-x="730" 
d="M579 568h-579v43h579v-43zM579 308h-579v43h579v-43z" />
    <glyph glyph-name="greater" unicode="&#x3e;" horiz-adv-x="521" 
d="M353 466l-302 -568h-51l302 568l-302 569h51z" />
    <glyph glyph-name="question" unicode="?" horiz-adv-x="540" 
d="M529 1101q-23 -105 -104 -212q-103 -137 -128 -191q-63 -133 -63 -331h-37q0 190 44 326q22 68 92 200q60 114 80 205q13 57 13 107q0 223 -191 223q-89 0 -159 -48l-76 -252v267q106 66 234 66q146 0 226 -70.5t80 -194.5q0 -45 -11 -95zM304 91l-91 -91l-91 91l91 91z
" />
    <glyph glyph-name="at" unicode="@" horiz-adv-x="1298" 
d="M1136 777q0 -158 -72 -284q-58 -103 -137 -148q-71 -41 -138 -41q-92 0 -128 71q-70 -65 -155 -65q-110 0 -172.5 72.5t-62.5 198.5q0 71 20 153q48 190 153.5 294t247.5 104q60 0 100 -23l84 49l-127 -595q-12 -57 -12 -100q0 -118 82 -118q39 0 86 28q78 46 125 169
q43 112 43 235q0 288 -144 469q-141 176 -353 176q-218 0 -353 -176q-144 -188 -144 -522q0 -333 144 -521q134 -175 353 -175q194 0 343 114l21 -33q-153 -120 -365 -120q-252 0 -408 186q-167 199 -167 549t167 550q157 187 408 187q244 0 401 -187q160 -191 160 -497z
M766 1079q-36 22 -81 22q-204 0 -297 -367q-26 -104 -26 -185q0 -208 151 -208q73 0 135 69q-5 20 -6 43q-2 40 9 88z" />
    <glyph glyph-name="A" unicode="A" horiz-adv-x="1012" 
d="M1016 0h-342l107 36l-166 592h-417l-166 -592l108 -36h-279l128 36l386 1379l-108 35h343l-108 -35l386 -1379zM603 670l-196 702l-197 -702h393z" />
    <glyph glyph-name="B" unicode="B" horiz-adv-x="1018" 
d="M846 394q0 -167 -114 -278q-119 -116 -316 -116h-416l118 36v1379l-118 35h332q202 0 316 -92.5t114 -254.5q0 -226 -251 -301q335 -59 335 -408zM660 1107q0 308 -349 308h-86v-602h153q21 0 45 -1q237 50 237 295zM744 390q0 381 -379 381h-140v-735h170q167 0 262 105
q87 97 87 249z" />
    <glyph glyph-name="C" unicode="C" horiz-adv-x="912" 
d="M768 70q-110 -81 -287 -81q-481 0 -481 736t481 736q177 0 287 -81v-267l-78 257q-98 58 -208 58v0q-162 0 -260 -171q-109 -187 -109 -532t109 -532q98 -170 260 -170v0q104 0 198 55l88 275v-283z" />
    <glyph glyph-name="D" unicode="D" horiz-adv-x="1069" 
d="M898 725q0 -374 -145 -562q-126 -163 -342 -163h-411l118 36v1379l-118 35h411q216 0 342 -163q145 -187 145 -562zM786 725q0 337 -113 523q-102 167 -259 167h-189v-1379h187q157 0 260 166q114 187 114 523z" />
    <glyph glyph-name="E" unicode="E" horiz-adv-x="932" 
d="M772 0h-772l118 36v1379l-118 35h749v-255l-74 220h-450v-595h307l62 172v-386l-62 172h-307v-742h465l82 235v-271z" />
    <glyph glyph-name="F" unicode="F" horiz-adv-x="903" 
d="M773 1195l-74 220h-474v-595h307l63 172v-386l-63 172h-307v-742l117 -36h-342l118 36v1379l-94 35h749v-255z" />
    <glyph glyph-name="G" unicode="G" horiz-adv-x="965" 
d="M785 70q-110 -81 -304 -81q-481 0 -481 736t481 736q177 0 287 -81v-267l-78 257q-97 58 -208 58v0q-162 0 -260 -171q-109 -187 -109 -532t109 -532q98 -170 260 -170v0q99 0 196 46v566l-123 49h230v-614z" />
    <glyph glyph-name="H" unicode="H" horiz-adv-x="1213" 
d="M1038 0h-328l103 36v742h-588v-742l103 -36h-328l118 36v1379l-118 35h328l-103 -35v-595h588v595l-103 35h328l-118 -35v-1379z" />
    <glyph glyph-name="I" unicode="I" horiz-adv-x="517" 
d="M342 0h-342l118 36v1379l-118 35h342l-117 -35v-1379z" />
    <glyph glyph-name="J" unicode="J" horiz-adv-x="659" 
d="M529 1450l-118 -35v-1032q0 -181 -80 -284.5t-208 -103.5q-105 0 -182 30l1 214l67 -190q53 -15 108 -15q187 0 187 349v1032l-117 35h342z" />
    <glyph glyph-name="K" unicode="K" horiz-adv-x="1090" 
d="M1044 0h-350l96 35l-448 725l-117 -152v-572l103 -36h-328l118 36v1379l-118 35h328l-103 -35v-742l566 742l-106 35h304l-147 -38l-436 -567l495 -803z" />
    <glyph glyph-name="L" unicode="L" horiz-adv-x="885" 
d="M772 0h-772l118 36v1379l-118 35h342l-117 -35v-1379h455l92 264v-300z" />
    <glyph glyph-name="M" unicode="M" horiz-adv-x="1394" 
d="M1239 0h-328l103 36v1310l-401 -1346h-86l-398 1336v-1300l103 -36h-265l118 36v1379l-118 35h334l-84 -27l387 -1307l387 1299l-108 35h356l-118 -35v-1379z" />
    <glyph glyph-name="N" unicode="N" horiz-adv-x="1149" 
d="M1018 1450l-118 -36v-1414h-89l-649 1378v-1342l103 -36h-265l118 36v1379l-118 35h334l-79 -26l601 -1253v1243l-103 36h265z" />
    <glyph glyph-name="O" unicode="O" horiz-adv-x="1114" 
d="M926 725q0 -382 -134 -570q-119 -166 -329 -166t-328 166q-135 188 -135 570t135 570q118 166 328 166t329 -166q134 -188 134 -570zM811 725q0 345 -102 532q-93 171 -245 171t-245 -171q-102 -187 -102 -532t102 -532q93 -170 245 -170t245 170q102 187 102 532z" />
    <glyph glyph-name="P" unicode="P" horiz-adv-x="986" 
d="M801 1103q0 -164 -104 -254q-106 -93 -306 -93h-166v-720l117 -36h-342l118 36v1379l-118 35h391q200 0 305 -91.5t105 -255.5zM699 1103q3 312 -329 312h-145v-624h145q327 0 329 312z" />
    <glyph glyph-name="Q" unicode="Q" horiz-adv-x="1118" 
d="M985 -336q-73 -16 -116 -16q-183 0 -300 105q-84 75 -161 240q-408 48 -408 732q0 382 135 570q118 166 328 166t329 -166q134 -188 134 -570q0 -682 -405 -732q127 -314 349 -314q18 0 52 7l63 181v-203zM811 725q0 345 -102 532q-93 171 -245 171t-245 -171
q-102 -187 -102 -532t102 -532q93 -170 245 -170t245 170q102 187 102 532z" />
    <glyph glyph-name="R" unicode="R" horiz-adv-x="1035" 
d="M962 0h-335l101 35q-62 741 -485 741h-18v-740l103 -36h-328l118 36v1379l-118 35h356q202 0 316 -92.5t114 -254.5q0 -118 -90.5 -212t-224.5 -118q174 -71 263 -290q56 -139 107 -450l-1 3zM684 1107q0 308 -349 308h-110v-604h33q77 0 144 -16q147 19 223 124
q59 83 59 188z" />
    <glyph glyph-name="S" unicode="S" horiz-adv-x="852" 
d="M690 414q5 -35 5 -68q0 -161 -107 -256t-290 -95q-69 0 -151 30q-92 32 -147 84v267l83 -259q103 -85 223 -85q148 0 225 95q62 76 62 188q0 30 -5 58q-23 114 -166 259q-127 123 -255 246q-136 144 -147 261q-2 19 -2 37q0 285 374 285q124 0 264 -71v-267l-73 241
q-102 64 -199 64q-118 0 -193 -57q-78 -59 -78 -161q0 -22 4 -46q17 -98 158 -240q130 -124 259 -249q141 -148 156 -261z" />
    <glyph glyph-name="T" unicode="T" horiz-adv-x="1013" 
d="M900 1195l-73 220h-333v-1379l117 -36h-342l118 36v1379h-333l-74 -220v255h920v-255z" />
    <glyph glyph-name="U" unicode="U" horiz-adv-x="1168" 
d="M1042 1450l-118 -36v-977q0 -250 -137 -363q-101 -85 -262 -85q-162 0 -266 85q-141 114 -141 363v978l-118 35h328l-103 -35v-995q0 -194 111 -291q89 -79 223 -79q120 0 206 84q102 101 102 286v994l-103 36h278z" />
    <glyph glyph-name="V" unicode="V" horiz-adv-x="1096" 
d="M1038 1450l-115 -34l-408 -1416h-95l-393 1411l-126 39h335l-97 -32l358 -1299l373 1296l-108 35h276z" />
    <glyph glyph-name="W" unicode="W" horiz-adv-x="1507" 
d="M1439 1450l-113 -34l-311 -1416h-93l-199 741l-199 -741h-96l-324 1412l-124 38h335l-98 -32l288 -1290l191 712l-153 572l-112 38h318l-104 -32l103 -386l102 383l-101 35h255l-100 -34l-130 -484l216 -816l283 1299l-108 35h274z" />
    <glyph glyph-name="X" unicode="X" horiz-adv-x="1122" 
d="M1042 0h-342l101 34l-327 663l-327 -663l101 -34h-268l118 36v-1l351 713l-326 660l-136 42h343l-91 -30l282 -572l291 569l-101 33h266l-117 -35l-314 -616l375 -761z" />
    <glyph glyph-name="Y" unicode="Y" horiz-adv-x="1125" 
d="M1058 1450l-120 -33l-362 -790v-591l118 -36h-343l118 36v592l-378 786l-130 36h347l-102 -33l349 -737l337 735l-106 35h272z" />
    <glyph glyph-name="Z" unicode="Z" horiz-adv-x="908" 
d="M731 1450l-648 -1414h564l82 235v-271h-769l648 1415h-487l-74 -220v255h684z" />
    <glyph glyph-name="bracketleft" unicode="[" horiz-adv-x="442" 
d="M408 -378h-408v2023h408v-43h-301v-1938h301v-42z" />
    <glyph glyph-name="backslash" unicode="\" horiz-adv-x="804" 
d="M804 0h-51l-753 1450h51z" />
    <glyph glyph-name="bracketright" unicode="]" horiz-adv-x="611" 
d="M408 -378h-408v42h301v1938h-301v43h408v-2023z" />
    <glyph glyph-name="asciicircum" unicode="^" horiz-adv-x="948" 
d="M830 796h-55l-360 568l-360 -568h-55l415 654z" />
    <glyph glyph-name="underscore" unicode="_" horiz-adv-x="1027" 
d="M909 0h-909v43h909v-43z" />
    <glyph glyph-name="grave" unicode="`" horiz-adv-x="433" 
d="M332 918l-332 456l52 76l100 -76z" />
    <glyph glyph-name="a" unicode="a" horiz-adv-x="740" 
d="M625 46l-197 -63v128q-67 -122 -212 -122q-96 0 -154.5 53t-61.5 141q-6 166 161 268q134 62 267 123v90q0 219 -142 219q-87 0 -147 -49l-77 -213v213q117 88 247 88q115 0 164 -58t49 -192v-626h103zM428 174v363q-108 -49 -216 -97q-121 -77 -121 -225q0 -72 30 -125
q38 -66 107 -66q150 0 200 150z" />
    <glyph glyph-name="b" unicode="b" horiz-adv-x="865" 
d="M673 452q0 -219 -84.5 -341t-228.5 -122q-91 0 -150 54l-92 -60v1392h-118l211 75v-603q60 68 149 68q144 0 228.5 -122t84.5 -341zM576 452q0 432 -216 432q-95 0 -149 -98v-690q59 -75 149 -75q216 0 216 431z" />
    <glyph glyph-name="c" unicode="c" horiz-adv-x="727" 
d="M551 71q-101 -76 -218 -76q-151 0 -238 110q-95 120 -95 353t95 353q87 110 238 110q118 0 218 -71v-216l-79 221q-70 34 -139 34q-236 0 -236 -431t236 -431q75 0 137 33l81 227v-216z" />
    <glyph glyph-name="d" unicode="d" horiz-adv-x="768" 
d="M661 46l-199 -63v59q-58 -53 -148 -53q-144 0 -229 122t-85 341t85 341t229 122q89 0 148 -68v528h-117l211 75v-1404h105zM462 96v690q-53 98 -148 98q-217 0 -217 -432q0 -431 217 -431q89 0 148 75z" />
    <glyph glyph-name="e" unicode="e" horiz-adv-x="756" 
d="M584 534h-484q-2 -41 -2 -76q0 -431 209 -431q91 0 170 67l99 262l1 -196q-106 -165 -270 -165q-143 0 -225 121.5t-82 341.5t82 341.5t225 121.5q131 0 206.5 -102t70.5 -285zM483 570q6 319 -176 319q-178 0 -205 -319h381z" />
    <glyph glyph-name="f" unicode="f" horiz-adv-x="555" 
d="M492 1411v-214l-72 203q-28 9 -60 9q-143 0 -143 -295v-199h252v-36h-252v-843l117 -36h-328l117 36v843h-123v36h123v195q0 154 69 243q66 85 170 85q59 0 130 -27z" />
    <glyph glyph-name="g" unicode="g" horiz-adv-x="726" 
d="M556 50q0 -185 -75 -296t-200 -111q-91 0 -175 33l1 214l69 -196q48 -18 97 -18q189 0 189 369v18q-59 -68 -148 -68q-144 0 -229 122t-85 341t85 341t229 122q93 0 152 -56l90 60v-875zM462 124v690q-59 75 -148 75q-216 0 -216 -431t216 -431q95 0 148 97z" />
    <glyph glyph-name="h" unicode="h" horiz-adv-x="857" 
d="M778 0h-315l104 36v628q0 219 -117 219q-165 0 -239 -194v-653l104 -36h-315l118 36v1339h-118l211 75v-688q42 73 119 118q72 42 140 42q191 0 191 -250v-636z" />
    <glyph glyph-name="i" unicode="i" horiz-adv-x="442" 
d="M255 1331l-91 -91l-90 91l90 90zM329 0h-329l118 36v843l-118 36h329l-118 -36v-843z" />
    <glyph glyph-name="j" unicode="j" horiz-adv-x="429" 
d="M247 1330l-91 -90l-91 90l91 91zM320 915l-117 -36v-879q0 -159 -62 -258t-162 -99q-66 0 -137 28l1 214l72 -205q26 -7 66 -7q128 0 128 323v883l-117 36h328z" />
    <glyph glyph-name="k" unicode="k" horiz-adv-x="819" 
d="M790 0h-310l89 35l-263 458l-95 -122v-335l104 -36h-315l118 36v1339h-118l211 75v-1025l348 449l-117 41h310l-147 -40l-243 -310l301 -520z" />
    <glyph glyph-name="l" unicode="l" horiz-adv-x="403" 
d="M329 0h-329l118 36v1339h-118l211 75v-1414z" />
    <glyph glyph-name="m" unicode="m" horiz-adv-x="1182" 
d="M1134 0h-315l103 36v628q0 219 -106 219q-130 0 -203 -194l1 -17v-636l103 -36h-301l104 36v628q0 219 -106 219q-130 0 -203 -193v-654l104 -36h-315l118 36v825h-118l211 76v-172q83 157 223 157q155 0 175 -166q82 166 228 166q99 0 139 -57.5t40 -192.5v-636z" />
    <glyph glyph-name="n" unicode="n" horiz-adv-x="890" 
d="M778 0h-315l104 36v628q0 219 -117 219q-164 0 -239 -194v-653l104 -36h-315l118 36v825h-118l211 76v-175q43 73 119 118q72 42 140 42q191 0 191 -250v-636z" />
    <glyph glyph-name="o" unicode="o" horiz-adv-x="734" 
d="M614 458q0 -220 -82 -341.5t-225 -121.5t-225 121.5t-82 341.5t82 341.5t225 121.5t225 -121.5t82 -341.5zM516 458q0 431 -209 431t-209 -431t209 -431t209 431z" />
    <glyph glyph-name="p" unicode="p" horiz-adv-x="891" 
d="M674 459q0 -219 -85 -341t-228 -122q-89 0 -148 67v-383l117 -35h-329l118 35v1195h-119l213 63v-68q58 52 148 52q143 0 228 -122t85 -341zM577 459q0 432 -216 432q-89 0 -148 -75v-692q53 -96 148 -96q216 0 216 431z" />
    <glyph glyph-name="q" unicode="q" horiz-adv-x="765" 
d="M673 -355h-329l118 35v383q-60 -67 -148 -67q-144 0 -229 122t-85 341t85 341t229 122q92 0 151 -55l90 63v-1250zM462 124v692q-59 75 -148 75q-216 0 -216 -432q0 -431 216 -431q94 0 148 96z" />
    <glyph glyph-name="r" unicode="r" horiz-adv-x="657" 
d="M529 897l-1 -214l-70 199q-22 6 -43 6q-93 0 -148.5 -103t-55.5 -282v-467l118 -36h-329l118 36v826h-118l211 76v-146q80 132 200 132q63 0 118 -27z" />
    <glyph glyph-name="s" unicode="s" horiz-adv-x="660" 
d="M474 275q0 -136 -81 -211q-73 -68 -190 -68q-114 0 -203 91v238l88 -244q44 -55 132 -55q80 0 134 49q58 52 58 138q0 89 -105 174l-196 142q-106 87 -106 179q0 216 239 216q89 0 193 -56v-224l-80 211q-59 38 -129 38q-154 0 -154 -142q0 -77 103 -156q97 -68 193 -136
q104 -87 104 -184z" />
    <glyph glyph-name="t" unicode="t" horiz-adv-x="554" 
d="M444 24q-39 -28 -129 -28q-223 0 -223 295v589h-107v36h107v218h-112l206 70v-288h244v-36h-244v-593q0 -261 143 -261q21 0 41 4l74 208v-214z" />
    <glyph glyph-name="u" unicode="u" horiz-adv-x="862" 
d="M764 77l-197 -76v152q-88 -159 -242 -159q-207 0 -207 235v633v0h-118l212 76v-700q0 -205 133 -205q149 0 222 194v635v0h-118l212 76v-861h103z" />
    <glyph glyph-name="v" unicode="v" horiz-adv-x="848" 
d="M782 916l-128 -39l-1 1l-251 -877h-90l-244 880l-127 35h329l-107 -36l-1 1l223 -817l234 818l-107 34h270z" />
    <glyph glyph-name="w" unicode="w" horiz-adv-x="1033" 
d="M996 916l-127 -39l-206 -876h-74l-141 475l-139 -475h-83l-209 880l-126 35h329l-106 -35l179 -811l138 465l-113 381h260l-88 -298l154 -548l192 811l-110 35h270zM533 881l-59 19l-57 -19l56 -202z" />
    <glyph glyph-name="x" unicode="x" horiz-adv-x="757" 
d="M708 1h-325l95 34l-198 393l-212 -391l98 -36h-270l135 40l230 424l-208 413l-128 38h325l-99 -36l-1 1l173 -345l188 344l-98 36h270l-136 -40l-205 -378l228 -456z" />
    <glyph glyph-name="y" unicode="y" horiz-adv-x="855" 
d="M801 916l-127 -39l-280 -876q-57 -181 -96 -252q-57 -104 -129 -104q-77 0 -120 35l1 214l75 -210q21 -10 47 -10q88 0 174 308l-276 898l-129 36h329l-107 -35l232 -743l238 744l-107 34h275z" />
    <glyph glyph-name="z" unicode="z" horiz-adv-x="728" 
d="M542 916l-435 -882h352l80 231v-264h-539l434 882h-312l-72 -215v248h492z" />
    <glyph glyph-name="braceleft" unicode="{" horiz-adv-x="580" 
d="M546 -344l-1 -34q-426 16 -426 534q0 75 9 160q4 39 4 75q0 225 -132 243q132 18 132 243q0 35 -4 74q-9 86 -9 161q0 517 426 533l1 -33q-153 -10 -232 -86q-109 -104 -109 -352q0 -99 18 -222q7 -51 7 -97q0 -172 -90 -221q90 -50 90 -222q0 -45 -7 -97
q-18 -123 -18 -222q0 -247 109 -352q79 -76 232 -85z" />
    <glyph glyph-name="bar" unicode="|" horiz-adv-x="266" 
d="M77 -380h-43v2380h43v-2380z" />
    <glyph glyph-name="braceright" unicode="}" horiz-adv-x="681" 
d="M546 634q-132 -18 -132 -243q0 -36 4 -75q9 -85 9 -161q0 -517 -426 -533l-1 34q154 9 232 85q109 105 109 352q0 99 -18 222q-7 52 -7 97q0 172 90 222q-90 49 -90 221q0 46 7 97q18 123 18 222q0 248 -109 352q-78 76 -232 86l1 33q426 -16 426 -533q0 -75 -9 -161
q-4 -39 -4 -74q0 -225 132 -243z" />
    <glyph glyph-name="asciitilde" unicode="~" horiz-adv-x="821" 
d="M720 1415q-56 -151 -163 -170q-18 -3 -37 -3q-91 0 -196 77q-95 69 -167 69q-21 0 -46 -9q-61 -21 -111 -99q54 151 170 170q22 4 43 4q80 0 179 -66q129 -86 201 -77q75 10 127 104z" />
    <glyph glyph-name="yen" unicode="&#xa5;" horiz-adv-x="1130" 
d="M1030 1450l-123 -34l-338 -622h315v-43h-336v-219h336v-43h-336v-453l118 -36h-343l118 36v453h-336v43h336v219h-336v43h312l-350 619l-134 37h347l-99 -32l344 -610l330 608l-104 34h279z" />
    <glyph glyph-name="nonbreakingspace" unicode="&#xa0;" 
 />
    <glyph glyph-name="quotedblleft" unicode="&#x201c;" horiz-adv-x="556" 
d="M385 994l-76 -76l-77 76l153 456v-456zM152 994l-75 -76l-77 76l152 456v-456z" />
    <glyph glyph-name="quotedblright" unicode="&#x201d;" horiz-adv-x="602" 
d="M385 1374l-153 -456v456l76 76zM153 1374l-153 -456v456l76 76z" />
    <glyph glyph-name="ydieresis" unicode="&#xff;" 
 />
    <glyph glyph-name="quotedblbase" unicode="&#x201e;" horiz-adv-x="664" 
d="M458 92l-158 -286l45 210l-69 76l91 91zM182 92l-158 -286l45 210l-69 76l91 91z" />
  </font>
</defs>
</svg>
